<?xml version="1.0" encoding="UTF-8"?>
<svg width="43px" height="23px" viewBox="0 0 43 23" version="1.1" xmlns="http://www.w3.org/2000/svg" xmlns:xlink="http://www.w3.org/1999/xlink">
    <title>downArrow</title>
    <g id="Page-1" stroke="none" stroke-width="1" fill="none" fill-rule="evenodd">
        <g id="DualShock-4-top" transform="translate(-264.000000, -432.000000)" stroke="#FF0000">
            <path d="M285.304144,433.260877 C285.676365,433.256755 286.050112,433.39043 286.34275,433.662818 L286.34275,433.662818 L305.937869,451.902033 C306.241064,452.184248 306.401166,452.56264 306.414914,452.946278 C306.428663,453.329915 306.296059,453.718797 306.013844,454.021992 C305.730085,454.326845 305.332355,454.5 304.915877,454.5 L304.915877,454.5 L266.575904,454.5 C266.16169,454.5 265.78669,454.332107 265.515243,454.06066 C265.243797,453.789214 265.075904,453.414214 265.075904,453 C265.075904,452.595064 265.239622,452.207331 265.529842,451.924939 L265.529842,451.924939 L284.274697,433.685725 C284.561229,433.406921 284.931924,433.265 285.304144,433.260877 Z" id="downArrow" transform="translate(285.826279, 443.500000) scale(1, -1) translate(-285.826279, -443.500000) "></path>
        </g>
    </g>
</svg>