<?xml version="1.0" encoding="UTF-8"?>
<svg width="23px" height="43px" viewBox="0 0 23 43" version="1.1" xmlns="http://www.w3.org/2000/svg" xmlns:xlink="http://www.w3.org/1999/xlink">
    <title>leftArrow</title>
    <g id="Page-1" stroke="none" stroke-width="1" fill="none" fill-rule="evenodd">
        <g id="DualShock-4-top" transform="translate(-429.000000, -266.000000)" stroke="#FF0000">
            <path d="M440.304144,277.260877 C440.676365,277.256755 441.050112,277.39043 441.34275,277.662818 L441.34275,277.662818 L460.937869,295.902033 C461.241064,296.184248 461.401166,296.56264 461.414914,296.946278 C461.428663,297.329915 461.296059,297.718797 461.013844,298.021992 C460.730085,298.326845 460.332355,298.5 459.915877,298.5 L459.915877,298.5 L421.575904,298.5 C421.16169,298.5 420.78669,298.332107 420.515243,298.06066 C420.243797,297.789214 420.075904,297.414214 420.075904,297 C420.075904,296.595064 420.239622,296.207331 420.529842,295.924939 L420.529842,295.924939 L439.274697,277.685725 C439.561229,277.406921 439.931924,277.265 440.304144,277.260877 Z" id="leftArrow" transform="translate(440.826279, 287.500000) scale(1, -1) rotate(90.000000) translate(-440.826279, -287.500000) "></path>
        </g>
    </g>
</svg>