<?xml version="1.0" encoding="UTF-8"?>
<svg width="112px" height="93px" viewBox="0 0 112 93" version="1.1" xmlns="http://www.w3.org/2000/svg" xmlns:xlink="http://www.w3.org/1999/xlink">
    <title>left</title>
    <g id="Page-1" stroke="none" stroke-width="1" fill="none" fill-rule="evenodd">
        <g id="DualShock-4-top" transform="translate(-153.000000, -243.000000)" stroke="#FA0000">
            <path d="M213,231.167297 C232.566873,231.167297 246.597783,235.626325 255.047566,244.62584 C256.887132,246.585083 257.81078,249.231812 257.589642,251.910195 L257.589642,251.910195 L254.071438,294.521974 C253.209515,304.961421 248.431692,314.688756 240.696599,321.752275 L240.696599,321.752275 L224.790183,336.277668 C221.450601,339.327302 217.224151,340.853219 212.997047,340.855037 C208.769942,340.856855 204.542182,339.334575 201.199977,336.287814 L201.199977,336.287814 L183.743564,320.374515 C176.241184,313.53533 171.505895,304.1834 170.433722,294.088322 L170.433722,294.088322 L166.36446,255.774054 C166.098062,253.265769 166.840127,250.75451 168.42707,248.793878 C177.955396,237.021849 192.824859,231.167297 213,231.167297 Z" id="keft" transform="translate(211.937500, 289.194305) scale(-1, -1) rotate(90.000000) translate(-211.937500, -289.194305) "></path>
        </g>
    </g>
</svg>