<?xml version="1.0" encoding="UTF-8"?>
<svg width="1529px" height="925px" viewBox="0 0 1529 925" version="1.1" xmlns="http://www.w3.org/2000/svg" xmlns:xlink="http://www.w3.org/1999/xlink">
    <title>Outline</title>
    <g id="Page-1" stroke="none" stroke-width="1" fill="none" fill-rule="evenodd" stroke-linecap="square">
        <g id="DualShock-4-top" transform="translate(-1.000000, -35.000000)" stroke="#FF0000">
            <path d="M1005.51359,50.249115 L1019.80643,57.2833252 L1107.27054,57.2833252 L1126.51111,45.2205048 L1154.63322,35.7402954 L1330.88846,43.3795471 L1347.13505,51.5 L1403.88088,142.665445 L1404.22046,143.335664 L1404.22046,143.335664 L1404.90233,144.698004 C1405.01628,144.927494 1405.13038,145.158201 1405.24462,145.390124 L1405.93191,146.796268 L1405.93191,146.796268 L1406.62282,148.231614 C1406.73827,148.473272 1406.85387,148.716146 1406.96962,148.960238 L1407.66594,150.439387 C1407.7823,150.688346 1407.8988,150.938521 1408.01546,151.189913 L1409.06943,153.485294 L1409.06943,153.485294 L1409.77659,155.052052 L1409.77659,155.052052 L1410.48737,156.648011 L1410.48737,156.648011 L1411.20175,158.273174 L1411.20175,158.273174 L1411.91975,159.927538 L1411.91975,159.927538 L1412.64137,161.611106 L1412.64137,161.611106 L1413.3666,163.323875 L1413.3666,163.323875 L1414.09544,165.065847 L1414.09544,165.065847 L1414.82789,166.837022 L1414.82789,166.837022 L1415.56396,168.637399 L1415.56396,168.637399 L1416.30364,170.466979 L1416.30364,170.466979 L1417.04693,172.325761 L1417.04693,172.325761 L1417.79384,174.213746 L1417.79384,174.213746 L1418.54436,176.130933 L1418.54436,176.130933 L1419.29849,178.077323 L1419.29849,178.077323 L1420.43646,181.051662 L1420.43646,181.051662 L1421.19963,183.071058 L1421.19963,183.071058 L1421.96641,185.119656 L1421.96641,185.119656 L1422.7368,187.197457 L1422.7368,187.197457 L1423.5108,189.304461 L1423.5108,189.304461 L1424.28842,191.440667 L1424.28842,191.440667 L1425.06965,193.606075 L1425.06965,193.606075 L1425.8545,195.800686 L1425.8545,195.800686 L1427.03854,199.147357 L1427.03854,199.147357 L1427.83242,201.414974 L1427.83242,201.414974 L1429.03001,204.871155 L1429.03001,204.871155 L1430.23573,208.393041 L1430.23573,208.393041 L1430.63944,209.581604 C1433.57199,218.232084 1436.46445,227.130443 1439.31683,236.276683 L1440.63047,240.515625 L1440.63047,240.515625 L1441.93842,244.789768 L1441.93842,244.789768 L1443.24067,249.099114 C1444.32351,252.704903 1445.40042,256.347361 1446.47141,260.026487 L1447.75374,264.459039 C1447.96699,265.200731 1448.18,265.94389 1448.39277,266.688516 L1449.66656,271.173871 L1449.66656,271.173871 L1450.93467,275.694427 C1453.46518,284.770743 1455.96154,294.058269 1458.42374,303.557007 L1460.02914,309.563705 C1460.29507,310.561479 1460.56018,311.557583 1460.82447,312.552016 L1462.40038,318.498564 L1462.40038,318.498564 L1463.95665,324.405011 C1464.21439,325.386077 1464.47131,326.365472 1464.72741,327.343197 L1466.25419,333.189493 L1466.25419,333.189493 L1467.76131,338.99569 C1468.01086,339.960048 1468.25959,340.922734 1468.5075,341.88375 L1469.98515,347.629796 C1470.22978,348.584129 1470.4736,349.536791 1470.7166,350.487782 L1472.16476,356.173677 C1472.40448,357.117985 1472.64339,358.060622 1472.88147,359.001588 L1474.30015,364.627333 L1474.30015,364.627333 L1475.69918,370.212978 L1475.69918,370.212978 L1477.07855,375.758522 L1477.07855,375.758522 L1478.43827,381.263966 C1478.66325,382.178199 1478.88741,383.09076 1479.11076,384.001651 L1480.44099,389.446945 L1480.44099,389.446945 L1481.75157,394.852138 L1481.75157,394.852138 L1483.0425,400.217231 L1483.0425,400.217231 L1484.31377,405.542224 L1484.31377,405.542224 L1485.56539,410.827117 L1485.56539,410.827117 L1486.79736,416.071909 L1486.79736,416.071909 L1488.00967,421.276601 C1488.21008,422.140708 1488.40967,423.003144 1488.60845,423.86391 L1489.79128,429.008451 L1489.79128,429.008451 L1490.95445,434.112893 L1490.95445,434.112893 L1492.09797,439.177234 L1492.09797,439.177234 L1493.22184,444.201474 C1493.40751,445.035506 1493.59236,445.867867 1493.7764,446.698557 L1494.87078,451.662647 L1494.87078,451.662647 L1495.94551,456.586637 L1495.94551,456.586637 L1497.00058,461.470527 L1497.00058,461.470527 L1498.036,466.314316 L1498.036,466.314316 L1499.05177,471.118006 L1499.05177,471.118006 L1500.04788,475.881594 C1500.21226,476.672184 1500.37582,477.461103 1500.53857,478.248351 L1501.5052,482.95179 L1501.5052,482.95179 L1502.45217,487.615128 L1502.45217,487.615128 L1503.37949,492.238365 C1503.53241,493.005563 1503.6845,493.77109 1503.83578,494.534947 L1504.73362,499.098034 L1504.73362,499.098034 L1505.61181,503.621021 C1505.75653,504.371511 1505.90044,505.120329 1506.04353,505.867477 L1506.89223,510.330314 C1507.03204,511.070778 1507.17104,511.809572 1507.30921,512.546694 L1508.12843,516.949381 C1508.26333,517.67982 1508.39741,518.408588 1508.53067,519.135686 L1509.32041,523.478222 L1509.32041,523.478222 L1510.0905,527.780657 L1510.0905,527.780657 L1510.84093,532.042992 C1511.4581,535.57823 1512.0548,539.071696 1512.63102,542.523391 L1513.31266,546.645376 L1513.31266,546.645376 L1513.97465,550.727259 L1513.97465,550.727259 L1514.83441,556.152323 L1514.83441,556.152323 L1516.36154,565.936766 L1516.36154,565.936766 L1517.23372,571.610512 L1517.23372,571.610512 L1518.10149,577.346992 L1518.10149,577.346992 L1518.74747,581.691788 L1518.74747,581.691788 L1519.38778,586.073945 L1519.38778,586.073945 L1519.81081,589.016579 L1519.81081,589.016579 L1520.4386,593.462982 L1520.4386,593.462982 L1520.85202,596.44927 L1520.85202,596.44927 L1521.26088,599.453479 L1521.26088,599.453479 L1521.66478,602.475875 L1521.66478,602.475875 L1522.26043,607.044143 L1522.26043,607.044143 L1522.65014,610.113155 L1522.65014,610.113155 L1523.03346,613.201275 L1523.03346,613.201275 L1523.40999,616.308767 C1523.47215,616.828311 1523.53402,617.348673 1523.59557,617.869859 L1523.96114,621.006901 L1523.96114,621.006901 L1524.3189,624.163973 L1524.3189,624.163973 L1524.66845,627.341338 L1524.66845,627.341338 L1525.00936,630.539259 C1525.06544,631.073974 1525.12114,631.609556 1525.17646,632.146011 L1525.50368,635.375261 C1525.55742,635.91523 1525.61077,636.456083 1525.6637,636.997825 L1525.9763,640.258997 C1526.13008,641.894963 1526.28,643.539034 1526.42586,645.191356 L1526.71207,648.507047 C1526.8524,650.170438 1526.98849,651.84218 1527.12014,653.522421 L1527.37742,656.894278 C1527.46115,658.022037 1527.54284,659.153617 1527.62241,660.289062 L1527.85472,663.707038 C1528.00527,665.993477 1528.14708,668.295552 1528.27963,670.613615 L1528.47142,674.102743 C1528.93316,682.85576 1529.26068,691.836068 1529.42536,701.06219 L1529.46556,703.563676 L1529.46556,703.563676 L1529.49997,705.572566 L1529.49997,705.572566 L1529.49997,706.953459 L1529.49997,706.953459 L1529.49997,709.087244 L1529.49997,709.087244 L1529.49997,711.295966 L1529.49997,711.295966 L1529.47782,713.579626 L1529.47782,713.579626 L1529.44021,716.741073 L1529.44021,716.741073 L1529.41456,718.371754 L1529.41456,718.371754 L1529.36752,720.880224 L1529.36752,720.880224 L1529.33045,722.594168 L1529.33045,722.594168 L1529.2426,726.121973 L1529.2426,726.121973 L1529.13649,729.782999 L1529.13649,729.782999 L1529.0121,733.577246 L1529.0121,733.577246 L1528.86945,737.504714 L1528.86945,737.504714 L1528.70853,741.565403 L1528.70853,741.565403 L1528.57585,744.698346 L1528.57585,744.698346 L1528.33187,750.086443 L1528.33187,750.086443 L1528.11614,754.546795 L1528.11614,754.546795 L1528.00143,756.826929 L1528.00143,756.826929 L1527.69465,762.672974 L1527.69465,762.672974 L1527.42868,767.499683 L1527.42868,767.499683 L1527.14444,772.459614 L1527.14444,772.459614 L1526.76345,778.846869 L1526.76345,778.846869 L1526.26858,786.786343 L1526.26858,786.786343 L1525.7326,795.025565 L1525.7326,795.025565 L1525.25456,802.120557 L1525.25456,802.120557 L1524.85156,807.946424 C1524.81722,808.437463 1524.78269,808.929891 1524.74796,809.423706 C1519.23763,853.097493 1505.16061,887.361257 1482.51691,912.214996 C1457.72206,939.429841 1444.0189,946.243217 1419.92594,952.082545 L1417.92186,952.560696 C1417.5838,952.640156 1417.24368,952.719532 1416.90144,952.798876 L1414.8222,953.274941 C1414.47128,953.354353 1414.11814,953.433831 1413.76272,953.513426 L1411.60236,953.9928 L1411.60236,953.9928 L1409.3846,954.477374 L1409.3846,954.477374 L1403.57172,955.7273 L1403.57172,955.7273 L1397.34214,957.062173 L1397.34214,957.062173 L1393.38715,957.919452 L1393.38715,957.919452 L1390.65446,958.519447 L1390.65446,958.519447 L1387.84183,959.14502 L1387.84183,959.14502 L1386.27321,959.043611 L1386.27321,959.043611 L1383.20012,958.837885 C1382.69496,958.803241 1382.19327,958.768408 1381.695,958.733368 L1378.74603,958.52053 L1378.74603,958.52053 L1375.87657,958.301955 L1375.87657,958.301955 L1373.08406,958.076849 C1372.16576,958.000637 1371.25986,957.923203 1370.36592,957.844415 L1367.71956,957.603858 L1367.71956,957.603858 L1365.14242,957.354382 C1329.53483,953.795572 1313.51725,947.380656 1285.25779,928.284294 C1262.82965,913.128451 1243.30749,889.385859 1226.69132,857.056519 L1224.32991,852.114968 L1224.32991,852.114968 L1222.77811,848.85268 L1222.77811,848.85268 L1220.4841,844.00737 L1220.4841,844.00737 L1218.97722,840.809243 L1218.97722,840.809243 L1217.48832,837.63678 L1217.48832,837.63678 L1215.28867,832.926205 L1215.28867,832.926205 L1213.84471,829.817902 L1213.84471,829.817902 L1211.71245,825.203568 L1211.71245,825.203568 L1210.31342,822.159426 L1210.31342,822.159426 L1208.93235,819.140947 L1208.93235,819.140947 L1207.56926,816.148132 L1207.56926,816.148132 L1205.55833,811.707031 L1205.55833,811.707031 L1204.24017,808.778376 L1204.24017,808.778376 L1202.93999,805.875386 L1202.93999,805.875386 L1201.65778,802.99806 L1201.65778,802.99806 L1199.76816,798.73019 L1199.76816,798.73019 L1198.53088,795.917024 L1198.53088,795.917024 L1197.31157,793.129522 L1197.31157,793.129522 L1196.11024,790.367684 L1196.11024,790.367684 L1194.92688,787.63151 L1194.92688,787.63151 L1193.18554,783.575369 L1193.18554,783.575369 L1192.04711,780.903356 L1192.04711,780.903356 L1190.37317,776.943455 L1190.37317,776.943455 L1189.27968,774.335602 L1189.27968,774.335602 L1188.20415,771.753412 L1188.20415,771.753412 L1187.1466,769.196886 L1187.1466,769.196886 L1186.10703,766.666025 L1186.10703,766.666025 L1184.43231,762.549497 L1184.43231,762.549497 L1182.75538,758.379269 L1182.75538,758.379269 L1180.65986,753.107413 L1180.65986,753.107413 L1178.84424,748.491213 L1178.84424,748.491213 L1177.34635,744.6523 L1177.34635,744.6523 L1175.41725,739.671214 L1175.41725,739.671214 L1173.01912,733.426329 L1173.01912,733.426329 L1170.53021,726.889534 L1170.53021,726.889534 L1167.51174,718.894334 L1167.51174,718.894334 L1164.82613,711.72507 L1164.82613,711.72507 L1162.9853,706.783389 L1162.9853,706.783389 L1159.66674,697.823268 L1159.66674,697.823268 L1156.72392,689.826929 L1156.72392,689.826929 L1153.69032,681.538682 L1153.69032,681.538682 L1150.56594,672.958526 L1150.56594,672.958526 L1146.80609,662.579403 L1146.80609,662.579403 L1143.48501,653.366778 L1143.48501,653.366778 L1140.07316,643.862244 L1140.07316,643.862244 C1137.72013,633.200704 1132.78446,625.574788 1125.26615,620.984497 C1117.74784,616.394206 1111.96602,615.295606 1107.92069,617.688698 C1073.98417,646.245801 1037.34908,658.805013 998.015418,655.366333 C958.681759,651.927653 926.142096,637.359821 900.39643,611.662838 L767.499382,612.526295 L767.5,612.548386 L765.817382,612.537295 L764.135047,612.548386 L764.134382,612.526295 L631.238617,611.662838 C605.750407,637.102851 573.603402,651.635183 534.7976,655.259834 L533.619629,655.366333 C494.28597,658.805013 457.650879,646.245801 423.714355,617.688698 C419.669027,615.295606 413.887207,616.394206 406.368896,620.984497 C398.850586,625.574788 393.914917,633.200704 391.56189,643.862244 L387.03292,656.470087 L387.03292,656.470087 L383.202462,667.07625 L383.202462,667.07625 L379.495567,677.285093 L379.495567,677.285093 L376.416575,685.719294 L376.416575,685.719294 L372.452468,696.510816 L372.452468,696.510816 L368.64975,706.783389 L368.64975,706.783389 L365.903623,714.147259 L365.903623,714.147259 L363.684531,720.060831 L363.684531,720.060831 L361.528482,725.771688 L361.528482,725.771688 L359.024439,732.357134 L359.024439,732.357134 L357.405511,736.58526 L357.405511,736.58526 L355.438589,741.687974 L355.438589,741.687974 L353.1615,747.543648 L353.1615,747.543648 L350.619633,754.006327 L350.619633,754.006327 L349.222615,757.520898 L349.222615,757.520898 L347.20274,762.549497 L347.20274,762.549497 L346.549622,764.160828 L346.549622,764.160828 L345.010477,767.928248 L345.010477,767.928248 L343.961914,770.471941 L343.961914,770.471941 L342.895378,773.041299 L342.895378,773.041299 L341.81087,775.63632 L341.81087,775.63632 L340.708388,778.257006 L340.708388,778.257006 L339.587933,780.903356 L339.587933,780.903356 L338.449506,783.575369 L338.449506,783.575369 L336.708165,787.63151 L336.708165,787.63151 L334.926385,791.745395 L334.926385,791.745395 L333.104166,795.917024 L333.104166,795.917024 L331.241508,800.146398 L331.241508,800.146398 L329.338411,804.433515 L329.338411,804.433515 L327.394874,808.778376 L327.394874,808.778376 L326.076717,811.707031 L326.076717,811.707031 L324.740587,814.661349 L324.740587,814.661349 L323.386484,817.641332 L323.386484,817.641332 L321.32163,822.159426 L321.32163,822.159426 L319.922594,825.203568 L319.922594,825.203568 L318.505586,828.273375 L318.505586,828.273375 L317.070604,831.368846 L317.070604,831.368846 L314.884433,836.060172 L314.884433,836.060172 L313.404519,839.219803 L313.404519,839.219803 L311.150949,844.00737 L311.150949,844.00737 L308.856939,848.85268 L308.856939,848.85268 L306.522491,853.755735 L306.522491,853.755735 L304.943726,857.056519 L304.943726,857.056519 C288.327555,889.385859 268.8054,913.128451 246.377258,928.284294 C218.1178,947.380656 202.100216,953.795572 166.49263,957.354382 L163.915485,957.603858 L163.915485,957.603858 L161.26913,957.844415 C160.37519,957.923203 159.469285,958.000637 158.550986,958.076849 L155.758476,958.301955 L155.758476,958.301955 L152.889021,958.52053 L152.889021,958.52053 L149.940044,958.733368 L149.940044,958.733368 L146.908968,958.941266 C145.884639,959.009831 144.846197,959.077704 143.793213,959.14502 L140.98059,958.519447 L140.98059,958.519447 L138.247892,957.919452 L138.247892,957.919452 L134.292904,957.062173 L134.292904,957.062173 L123.381674,954.722362 L123.381674,954.722362 L120.032691,953.9928 L120.032691,953.9928 L117.87233,953.513426 L117.87233,953.513426 L115.766713,953.036858 L115.766713,953.036858 L113.71319,952.560696 L113.71319,952.560696 L111.709109,952.082545 C87.6161496,946.243217 73.9129819,939.429841 49.1181335,912.214996 C26.4744364,887.361257 12.3974202,853.097493 6.88708496,809.423706 L6.34119702,801.545297 L6.34119702,801.545297 L5.82860497,793.909683 L5.82860497,793.909683 L5.50537465,788.954161 L5.50537465,788.954161 L4.97532968,780.541652 L4.97532968,780.541652 L4.55707596,773.593958 L4.55707596,773.593958 L4.17211813,766.889059 L4.17211813,766.889059 L3.87675429,761.487112 L3.87675429,761.487112 L3.65711116,757.286952 L3.65711116,757.286952 L3.40336718,752.1885 L3.40336718,752.1885 L3.17274533,747.258655 L3.17274533,747.258655 L2.96524563,742.497417 L2.96524563,742.497417 L2.78086807,737.904788 L2.78086807,737.904788 L2.65001396,734.352082 L2.65001396,734.352082 L2.50725625,730.062947 L2.50725625,730.062947 L2.38762069,725.942419 L2.38762069,725.942419 L2.32693798,723.551034 L2.32693798,723.551034 L2.24429784,719.700279 L2.24429784,719.700279 L2.19483367,716.741073 L2.19483367,716.741073 L2.16016767,713.889775 L2.16016767,713.889775 L2.13591524,711.146387 L2.13591524,711.146387 L2.13591524,709.815159 L2.13591524,709.815159 L2.13591524,707.421157 L2.13591524,707.421157 L2.13591524,705.572566 C2.13591524,705.269402 2.15319516,704.968705 2.15629081,704.670475 L2.17892456,702.910698 L2.17892456,702.910698 C2.47414849,683.775473 3.4729664,665.69542 4.92297417,648.507047 L5.20918706,645.191356 L5.20918706,645.191356 L5.50626128,641.89767 L5.50626128,641.89767 L5.81379015,638.625726 C5.91799703,637.538673 6.02387857,636.455199 6.13136699,635.375261 L6.45858512,632.146011 L6.45858512,632.146011 L6.79503786,628.937712 L6.79503786,628.937712 L7.14031853,625.750102 L7.14031853,625.750102 L7.49402045,622.582917 L7.49402045,622.582917 L7.85573694,619.435893 L7.85573694,619.435893 L8.22506132,616.308767 L8.22506132,616.308767 L8.60158692,613.201275 L8.60158692,613.201275 L8.98490705,610.113155 L8.98490705,610.113155 L9.37461502,607.044143 L9.37461502,607.044143 L9.77030418,603.993975 L9.77030418,603.993975 L10.374163,599.453479 L10.374163,599.453479 L10.7830258,596.44927 L10.7830258,596.44927 L11.4047389,591.976477 L11.4047389,591.976477 L11.8242337,589.016579 L11.8242337,589.016579 L12.2472696,586.073945 L12.2472696,586.073945 L13.102338,580.239415 L13.102338,580.239415 L13.74991,575.906875 L13.74991,575.906875 L14.4013318,571.610512 L14.4013318,571.610512 L15.0552309,567.349437 L15.0552309,567.349437 L16.5829193,557.539161 L16.5829193,557.539161 L17.3367756,552.753164 L17.3367756,552.753164 L17.9889349,548.69133 L17.9889349,548.69133 L18.6607486,544.589396 C19.4559963,539.780415 20.2913717,534.889562 21.1668748,529.916837 L21.9271333,525.634452 L21.9271333,525.634452 L22.7070461,521.311966 C22.8386694,520.58821 22.9711117,519.862784 23.1043729,519.135686 L23.9137673,514.75305 C24.3233782,512.551707 24.7403594,510.335326 25.164711,508.103908 L26.0232414,503.621021 L26.0232414,503.621021 L26.9014262,499.098034 L26.9014262,499.098034 L27.7992654,494.534947 L27.7992654,494.534947 L28.716759,489.931759 C28.8713125,489.161219 29.0266849,488.389009 29.1828762,487.615128 L30.1298514,482.95179 C30.2893185,482.171225 30.4496045,481.388989 30.6107094,480.605083 L31.5871662,475.881594 L31.5871662,475.881594 L32.5832774,471.118006 L32.5832774,471.118006 L33.599043,466.314316 C33.7699751,465.51036 33.9417262,464.704732 34.1142962,463.897434 L35.1595433,459.033595 L35.1595433,459.033595 L36.2244449,454.129655 C36.4035663,453.30899 36.5835067,452.486654 36.7642661,451.662647 L37.8586492,446.698557 C38.0426843,445.867867 38.2275383,445.035506 38.4132112,444.201474 L39.5370759,439.177234 C39.7260246,438.336518 39.9157922,437.494132 40.1063787,436.650076 L41.259725,431.565684 L41.259725,431.565684 L42.4327258,426.441193 L42.4327258,426.441193 L43.6253809,421.276601 L43.6253809,421.276601 L44.8376904,416.071909 C45.0413799,415.201119 45.2458883,414.328658 45.4512156,413.454526 L46.6930067,408.189683 C46.9016098,407.308868 47.1110317,406.426381 47.3212727,405.542224 L48.5925454,400.217231 L48.5925454,400.217231 L49.8834725,394.852138 C50.1002648,393.954614 50.3178762,393.055419 50.5363064,392.154554 L51.8567151,386.72931 C52.0784211,385.821761 52.300946,384.912541 52.5242898,384.001651 L53.8741801,378.516257 L53.8741801,378.516257 L55.2437248,372.990762 L55.2437248,372.990762 L56.6329239,367.425168 L56.6329239,367.425168 L58.0417773,361.819473 L58.0417773,361.819473 L59.4702852,356.173677 L59.4702852,356.173677 L60.9184475,350.487782 L60.9184475,350.487782 L62.3862641,344.761786 L62.3862641,344.761786 L63.8737352,338.99569 L63.8737352,338.99569 L65.3808606,333.189493 L65.3808606,333.189493 L66.9076404,327.343197 L66.9076404,327.343197 L68.4540747,321.4568 L68.4540747,321.4568 L70.0201633,315.530302 L70.0201633,315.530302 L71.6059063,309.563705 L71.6059063,309.563705 L73.2113037,303.557007 L73.2113037,303.557007 L74.4452532,298.825239 C76.0943139,292.539683 77.7585534,286.347999 79.4379718,280.250186 L80.7003816,275.694427 C84.707025,261.323595 88.7992865,247.482256 92.9771661,234.170412 L94.2993425,229.984273 L94.2993425,229.984273 L95.627211,225.833335 C97.1797112,221.011109 98.7438328,216.260754 100.319576,211.582269 L101.399319,208.393041 L101.399319,208.393041 L102.605039,204.871155 L102.605039,204.871155 L103.404336,202.559734 L103.404336,202.559734 L104.20002,200.277515 L104.20002,200.277515 L104.992091,198.024499 L104.992091,198.024499 L105.780549,195.800686 L105.780549,195.800686 L106.565393,193.606075 L106.565393,193.606075 L107.346624,191.440667 L107.346624,191.440667 L108.124243,189.304461 L108.124243,189.304461 L108.898248,187.197457 L108.898248,187.197457 L109.668639,185.119656 L109.668639,185.119656 L110.435418,183.071058 L110.435418,183.071058 L111.198584,181.051662 L111.198584,181.051662 L111.958136,179.061469 L111.958136,179.061469 L112.714075,177.100478 L112.714075,177.100478 L113.84121,174.213746 L113.84121,174.213746 L114.588116,172.325761 L114.588116,172.325761 L115.331409,170.466979 L115.331409,170.466979 L116.071089,168.637399 L116.071089,168.637399 L116.807156,166.837022 L116.807156,166.837022 L117.53961,165.065847 L117.53961,165.065847 L118.268451,163.323875 L118.268451,163.323875 L118.993678,161.611106 L118.993678,161.611106 L119.715292,159.927538 L119.715292,159.927538 L120.433294,158.273174 L120.433294,158.273174 L121.147682,156.648011 L121.147682,156.648011 L121.858457,155.052052 L121.858457,155.052052 L122.565618,153.485294 L122.565618,153.485294 L123.269167,151.94774 L123.269167,151.94774 L123.969102,150.439387 L123.969102,150.439387 L124.665424,148.960238 L124.665424,148.960238 L125.358134,147.510291 L125.358134,147.510291 L126.04723,146.089546 L126.04723,146.089546 L126.732712,144.698004 C126.846658,144.468513 126.960454,144.24024 127.074099,144.013183 L127.754162,142.665445 L184.5,51.5 L200.746582,43.3795471 L377.001831,35.7402954 L405.123932,45.2205048 L424.364502,57.2833252 L511.828613,57.2833252 L526.12146,50.249115 L1005.51359,50.249115 Z" id="Outline"></path>
        </g>
    </g>
</svg>