<?xml version="1.0" encoding="UTF-8"?>
<svg width="23px" height="43px" viewBox="0 0 23 43" version="1.1" xmlns="http://www.w3.org/2000/svg" xmlns:xlink="http://www.w3.org/1999/xlink">
    <title>rightArrow</title>
    <g id="Page-1" stroke="none" stroke-width="1" fill="none" fill-rule="evenodd">
        <g id="DualShock-4-top" transform="translate(-118.000000, -265.000000)" stroke="#FF0000">
            <path d="M128.304144,276.260877 C128.676365,276.256755 129.050112,276.39043 129.34275,276.662818 L129.34275,276.662818 L148.937869,294.902033 C149.241064,295.184248 149.401166,295.56264 149.414914,295.946278 C149.428663,296.329915 149.296059,296.718797 149.013844,297.021992 C148.730085,297.326845 148.332355,297.5 147.915877,297.5 L147.915877,297.5 L109.575904,297.5 C109.16169,297.5 108.78669,297.332107 108.515243,297.06066 C108.243797,296.789214 108.075904,296.414214 108.075904,296 C108.075904,295.595064 108.239622,295.207331 108.529842,294.924939 L108.529842,294.924939 L127.274697,276.685725 C127.561229,276.406921 127.931924,276.265 128.304144,276.260877 Z" id="rightArrow" transform="translate(128.826279, 286.500000) scale(-1, -1) rotate(90.000000) translate(-128.826279, -286.500000) "></path>
        </g>
    </g>
</svg>