<?xml version="1.0" encoding="UTF-8"?>
<svg width="43px" height="23px" viewBox="0 0 43 23" version="1.1" xmlns="http://www.w3.org/2000/svg" xmlns:xlink="http://www.w3.org/1999/xlink">
    <title>upArrow</title>
    <g id="Page-1" stroke="none" stroke-width="1" fill="none" fill-rule="evenodd">
        <g id="DualShock-4-top" transform="translate(-263.000000, -121.000000)" stroke="#FF0000">
            <path d="M284.304144,122.260877 C284.676365,122.256755 285.050112,122.39043 285.34275,122.662818 L285.34275,122.662818 L304.937869,140.902033 C305.241064,141.184248 305.401166,141.56264 305.414914,141.946278 C305.428663,142.329915 305.296059,142.718797 305.013844,143.021992 C304.730085,143.326845 304.332355,143.5 303.915877,143.5 L303.915877,143.5 L265.575904,143.5 C265.16169,143.5 264.78669,143.332107 264.515243,143.06066 C264.243797,142.789214 264.075904,142.414214 264.075904,142 C264.075904,141.595064 264.239622,141.207331 264.529842,140.924939 L264.529842,140.924939 L283.274697,122.685725 C283.561229,122.406921 283.931924,122.265 284.304144,122.260877 Z" id="upArrow"></path>
        </g>
    </g>
</svg>