<?xml version="1.0" encoding="UTF-8"?>
<svg width="1276px" height="415px" viewBox="0 0 1276 415" version="1.1" xmlns="http://www.w3.org/2000/svg" xmlns:xlink="http://www.w3.org/1999/xlink">
    <title>DualShock 4 rear</title>
    <g id="Page-1" stroke="none" stroke-width="1" fill="none" fill-rule="evenodd" stroke-linecap="square">
        <g id="DualShock-4-rear" transform="translate(-176.000000, -178.000000)" stroke="#FF0000">
            <g id="background" transform="translate(176.000000, 177.605118)">
                <path d="M636.411011,357.682999 L635.038478,357.678831 C615.346028,357.559368 594.816092,354.871436 573.448669,349.615036 L554.389558,344.895017 L554.389558,344.895017 L519.665893,336.239955 L519.665893,336.239955 L456.848577,320.529997 L456.848577,320.529997 L388.023956,303.286942 L320.2034,298.638474 C312.592401,300.142322 306.674859,302.906564 302.450775,306.931198 C298.372349,310.817052 294.380459,316.066992 290.475106,322.681017 L290.057007,323.394882 L297.733093,181.431007 C291.543059,162.381219 282.744679,148.047415 271.337952,138.429596 C260.159359,129.004133 247.310558,122.475312 232.791549,118.843133 L231.900543,118.624374 L166.862396,118.624374 L165.221758,119.363828 L165.221758,119.363828 L163.612457,120.100257 L163.612457,120.100257 L162.034492,120.833662 L162.034492,120.833662 L160.487863,121.564041 L160.487863,121.564041 L158.972571,122.291395 L158.972571,122.291395 L157.488616,123.015725 C157.243901,123.136194 157.000492,123.256538 156.758389,123.376755 L155.321438,124.096548 L155.321438,124.096548 L153.915824,124.813315 C153.684166,124.932524 153.453814,125.051608 153.224768,125.170565 L151.866159,125.882795 C151.642335,126.001248 151.419817,126.119575 151.198605,126.237776 L149.887,126.945469 C149.455021,127.180862 149.028265,127.415751 148.606732,127.650137 L147.3578,128.35178 L147.3578,128.35178 L146.140205,129.050398 C145.539241,129.398951 144.950029,129.74637 144.372568,130.092654 L143.233314,130.78371 L143.233314,130.78371 L142.125396,131.471742 C141.761313,131.700581 141.402453,131.928917 141.048815,132.156748 L140.003571,132.83873 C138.116014,134.086257 136.386446,135.318533 134.814866,136.53556 L133.973309,137.19788 C132.321531,138.519495 130.857772,139.822961 129.582032,141.108279 L128.910541,141.797642 L128.910541,141.797642 L127.860865,142.896423 L127.860865,142.896423 L127.177377,143.624791 L127.177377,143.624791 L126.506782,144.350982 L126.506782,144.350982 L125.848957,145.075975 L125.848957,145.075975 L125.203777,145.800753 C125.097294,145.921586 124.991333,146.04245 124.885891,146.163367 L124.259449,146.88966 C124.156073,147.010868 124.053212,147.13217 123.950862,147.253584 L123.342878,147.9836 L123.342878,147.9836 L122.747046,148.717325 C122.255549,149.330579 121.77658,149.948718 121.309819,150.574295 L120.755545,151.328723 C119.750042,152.718986 118.803001,154.150201 117.910994,155.649568 L117.429882,156.474328 C115.606385,159.663067 114.020771,163.171388 112.641721,167.247948 L112.286634,168.324452 C111.527342,170.685515 110.833171,173.235021 110.198465,176.017872 L109.909726,177.318997 C109.72002,178.197677 109.535863,179.099104 109.357087,180.024584 L109.092941,181.431007 L109.092941,181.431007 C106.607061,195.045677 107.223323,205.92923 110.941727,214.081665 L115.133798,228.644971 L115.133798,228.644971 L118.482688,240.216064 L118.482688,240.216064 L120.428966,246.912177 L120.428966,246.912177 L122.327953,253.423382 L122.327953,253.423382 L125.387837,263.864485 L125.387837,263.864485 L127.160712,269.882604 L127.160712,269.882604 L129.450981,277.619128 L129.450981,277.619128 L132.195587,286.827515 L132.195587,286.827515 L134.296688,293.824409 L134.296688,293.824409 L136.313715,300.492579 L136.313715,300.492579 L138.246668,306.832025 L138.246668,306.832025 L140.095547,312.842747 L140.095547,312.842747 L141.427032,317.135062 L141.427032,317.135062 L143.128781,322.570516 L143.128781,322.570516 L144.349918,326.431381 L144.349918,326.431381 L145.523764,330.107339 L145.523764,330.107339 L146.650318,333.598389 L146.650318,333.598389 L147.729581,336.904531 L147.729581,336.904531 L148.422816,339.0059 L148.422816,339.0059 L149.423258,342.003864 L149.423258,342.003864 L150.063947,343.89978 L150.063947,343.89978 L150.683617,345.713515 L150.683617,345.713515 L151.282269,347.445068 L151.282269,347.445068 L151.859902,349.094441 L151.859902,349.094441 L152.416516,350.661633 C152.507533,350.915983 152.597675,351.166909 152.686941,351.414411 L153.212028,352.858331 C153.297791,353.092135 153.382678,353.322516 153.466689,353.549473 L153.960248,354.870121 L153.960248,354.870121 L154.432788,356.108588 L154.432788,356.108588 L154.884309,357.264874 L154.884309,357.264874 L155.314812,358.338979 L155.314812,358.338979 L155.724297,359.330903 L155.724297,359.330903 L156.112762,360.240646 L156.112762,360.240646 L156.560545,361.262101 L156.560545,361.262101 L157.003997,362.258243 L157.003997,362.258243 L157.661055,363.704998 L157.661055,363.704998 L158.09368,364.637863 L158.09368,364.637863 L158.521974,365.545415 L158.521974,365.545415 L158.945937,366.427656 L158.945937,366.427656 L159.36557,367.284586 L159.36557,367.284586 L159.780871,368.116204 L159.780871,368.116204 L160.191842,368.922511 L160.191842,368.922511 L160.598482,369.703506 L160.598482,369.703506 L161.000791,370.45919 L161.000791,370.45919 L161.39877,371.189563 L161.39877,371.189563 L161.792417,371.894624 L161.792417,371.894624 L162.181734,372.574373 L162.181734,372.574373 L162.566719,373.228811 L162.566719,373.228811 L162.947374,373.857938 L162.947374,373.857938 L163.323698,374.461753 L163.323698,374.461753 L163.695692,375.040257 L163.695692,375.040257 L164.063354,375.593449 L164.063354,375.593449 L164.426686,376.12133 L164.426686,376.12133 L164.785687,376.623899 L164.785687,376.623899 L165.140357,377.101157 L165.140357,377.101157 L165.490696,377.553103 L165.490696,377.553103 L165.836704,377.979738 L165.836704,377.979738 L166.178382,378.381061 C166.631064,378.899285 167.072198,379.350012 167.501783,379.733241 L167.821806,380.008007 C169.040262,381.012763 170.163258,381.459613 171.190796,381.348557 C150.902376,384.669076 131.631787,383.608692 113.379028,378.167404 C95.1262695,372.726116 77.4999267,363.20866 60.5,349.615036 C20.4406738,310.134933 0.411010742,260.880925 0.411010742,201.853012 C0.411010742,143.415378 15.7949835,101.35378 46.5629291,75.66822 L47.5,74.8948822 L58.8659668,26.3418274 C68.5170254,17.0936987 79.1606361,11.4850917 90.7967987,9.51600647 L92.4412597,9.24071095 L92.4412597,9.24071095 L94.2329265,8.94757591 L94.2329265,8.94757591 L96.8509261,8.53182671 L96.8509261,8.53182671 L98.9863516,8.2034739 L98.9863516,8.2034739 L101.269222,7.86277397 L101.269222,7.86277397 L103.699608,7.51137465 L103.699608,7.51137465 L106.277581,7.15092364 L106.277581,7.15092364 L108.078259,6.90640796 L108.078259,6.90640796 L110.902371,6.53453244 L110.902371,6.53453244 L113.874262,6.15799917 C114.212685,6.1159644 114.553845,6.0738739 114.897744,6.03173782 L116.994003,5.77845588 L116.994003,5.77845588 L119.156005,5.52456847 L119.156005,5.52456847 L121.383771,5.27056381 L121.383771,5.27056381 L124.848774,4.89040494 L124.848774,4.89040494 L127.241043,4.63824309 L127.241043,4.63824309 L129.699151,4.38767273 L129.699151,4.38767273 L132.223119,4.13918208 C132.649269,4.0979674 133.078165,4.05685973 133.509806,4.01586922 L136.132603,3.77141354 L136.132603,3.77141354 L138.821313,3.5302581 L138.821313,3.5302581 L141.575956,3.29289113 C142.505162,3.21445446 143.445361,3.13673057 144.396555,3.05980083 L147.28313,2.83147542 L147.28313,2.83147542 L150.235703,2.60840312 L150.235703,2.60840312 L153.254294,2.39107213 C153.762896,2.35535586 154.274249,2.31989916 154.788354,2.28471219 L157.906013,2.07690858 C158.431129,2.04284124 158.958997,2.00906398 159.489619,1.97558696 L162.706394,1.77840921 C163.248031,1.74617387 163.792423,1.71425912 164.339569,1.68267513 L167.655508,1.49722173 C168.771842,1.43678122 169.899199,1.37774512 171.037582,1.32019481 L174.485813,1.15208261 C175.066032,1.12483392 175.649009,1.09797703 176.234744,1.07152209 L179.78225,0.91769735 C180.379017,0.892890936 180.978544,0.868506824 181.58083,0.844555185 L185.227658,0.706116395 L185.227658,0.706116395 L188.940728,0.578545172 L188.940728,0.578545172 L192.720061,0.462329729 C193.355472,0.443933927 193.993646,0.426031624 194.634582,0.408632993 L198.513349,0.310366623 L198.513349,0.310366623 L202.458431,0.224676569 C203.121472,0.211470043 203.787278,0.198807872 204.455847,0.186700228 L208.500443,0.12079005 L208.500443,0.12079005 L212.611408,0.0686767247 L212.611408,0.0686767247 L216.788763,0.0308484649 C219.595801,0.0104998057 222.447113,0 225.342728,0 C272.882669,0 320.422557,5.65465974 367.96239,16.9639792 L370.123291,17.4819336 L636.5,19.0194397 L906.283508,17.4819336 C954.54364,5.8273112 1002.80383,0 1051.06407,0 C1053.95969,0 1056.811,0.0104998057 1059.61804,0.0308484649 L1063.79539,0.0686767247 L1063.79539,0.0686767247 L1067.90636,0.12079005 L1067.90636,0.12079005 L1071.95095,0.186700228 C1072.61952,0.198807872 1073.28533,0.211470043 1073.94837,0.224676569 L1077.89345,0.310366623 L1077.89345,0.310366623 L1081.77222,0.408632993 C1082.41315,0.426031624 1083.05133,0.443933927 1083.68674,0.462329729 L1087.46607,0.578545172 L1087.46607,0.578545172 L1091.17914,0.706116395 L1091.17914,0.706116395 L1094.82597,0.844555185 C1095.42826,0.868506824 1096.02778,0.892890936 1096.62455,0.91769735 L1100.17206,1.07152209 L1100.17206,1.07152209 L1103.65337,1.23499386 C1105.37749,1.31906013 1107.07679,1.40656096 1108.75129,1.49722173 L1112.06723,1.68267513 C1112.61438,1.71425912 1113.15877,1.74617387 1113.70041,1.77840921 L1116.91718,1.97558696 L1116.91718,1.97558696 L1120.06787,2.17997067 C1120.58748,2.214608 1121.10434,2.24952523 1121.61845,2.28471219 L1124.67005,2.49898944 C1125.17315,2.53521467 1125.6735,2.57168928 1126.1711,2.60840312 L1129.12367,2.83147542 L1129.12367,2.83147542 L1132.01024,3.05980083 C1132.48584,3.0982657 1132.95869,3.13692911 1133.42879,3.17578088 L1136.21641,3.41107054 L1136.21641,3.41107054 L1138.93808,3.65039277 L1138.93808,3.65039277 L1141.59383,3.89325936 C1142.03097,3.93400536 1142.46535,3.9748787 1142.89699,4.01586922 L1145.4539,4.26313693 L1145.4539,4.26313693 L1147.94493,4.51272846 L1147.94493,4.51272846 L1150.37012,4.76415559 L1150.37012,4.76415559 L1152.72948,5.01693011 L1152.72948,5.01693011 L1155.02303,5.27056381 L1155.02303,5.27056381 L1157.25079,5.52456847 L1157.25079,5.52456847 L1159.4128,5.77845588 L1159.4128,5.77845588 L1161.50906,6.03173782 L1161.50906,6.03173782 L1164.53022,6.40945751 L1164.53022,6.40945751 L1166.46222,6.65908984 L1166.46222,6.65908984 L1168.32854,6.90640796 L1168.32854,6.90640796 L1171.00495,7.27197801 L1171.00495,7.27197801 L1173.53372,7.62959487 L1173.53372,7.62959487 L1175.13758,7.86277397 L1175.13758,7.86277397 L1177.42045,8.2034739 L1177.42045,8.2034739 L1179.55587,8.53182671 L1179.55587,8.53182671 L1182.17387,8.94757591 L1182.17387,8.94757591 L1184.53005,9.33453966 L1184.53005,9.33453966 L1185.61,9.51600647 L1185.61,9.51600647 C1197.24616,11.4850917 1207.88977,17.0936987 1217.54083,26.3418274 L1228.9068,74.8948822 C1260.29946,100.505722 1275.99579,142.825099 1275.99579,201.853012 C1275.99579,260.880925 1255.96613,310.134933 1215.9068,349.615036 C1198.90687,363.20866 1181.28053,372.726116 1163.02777,378.167404 C1144.77501,383.608692 1125.50442,384.669076 1105.216,381.348557 C1106.6903,381.507899 1108.3611,380.518734 1110.22842,378.381061 L1110.5701,377.979738 L1110.5701,377.979738 L1110.9161,377.553103 L1110.9161,377.553103 L1111.26644,377.101157 L1111.26644,377.101157 L1111.62111,376.623899 L1111.62111,376.623899 L1111.98011,376.12133 L1111.98011,376.12133 L1112.34345,375.593449 L1112.34345,375.593449 L1112.71111,375.040257 L1112.71111,375.040257 L1113.0831,374.461753 L1113.0831,374.461753 L1113.45942,373.857938 L1113.45942,373.857938 L1113.84008,373.228811 L1113.84008,373.228811 L1114.22507,372.574373 L1114.22507,372.574373 L1114.61438,371.894624 L1114.61438,371.894624 L1115.00803,371.189563 L1115.00803,371.189563 L1115.40601,370.45919 L1115.40601,370.45919 L1115.80832,369.703506 C1115.87573,369.57545 1115.94332,369.446339 1116.0111,369.316173 L1116.4199,368.522522 L1116.4199,368.522522 L1116.83304,367.703559 L1116.83304,367.703559 L1117.2505,366.859285 L1117.2505,366.859285 L1117.6723,365.9897 L1117.6723,365.9897 L1118.09843,365.094803 L1118.09843,365.094803 L1118.74574,363.704998 L1118.74574,363.704998 L1119.1827,362.746823 L1119.1827,362.746823 L1119.84625,361.262101 L1119.84625,361.262101 L1120.29404,360.240646 L1120.29404,360.240646 L1120.6825,359.330903 C1120.749,359.172431 1120.81637,359.010535 1120.88462,358.845214 L1121.30461,357.8122 L1121.30461,357.8122 L1121.74562,356.697004 C1121.82088,356.50429 1121.89701,356.308151 1121.97401,356.108588 L1122.44655,354.870121 L1122.44655,354.870121 L1122.94011,353.549473 L1122.94011,353.549473 L1123.45469,352.146643 L1123.45469,352.146643 L1123.99028,350.661633 L1123.99028,350.661633 L1124.83309,348.280027 L1124.83309,348.280027 L1125.42123,346.589564 L1125.42123,346.589564 L1126.03039,344.81692 L1126.03039,344.81692 L1126.66057,342.962094 L1126.66057,342.962094 L1127.64525,340.025767 L1127.64525,340.025767 L1128.67722,336.904531 L1128.67722,336.904531 L1129.39147,334.720982 L1129.39147,334.720982 L1130.50226,331.291567 L1130.50226,331.291567 L1131.26906,328.902565 L1131.26906,328.902565 L1132.45867,325.164972 L1132.45867,325.164972 L1133.27802,322.570516 L1133.27802,322.570516 L1134.54645,318.524744 L1134.54645,318.524744 L1135.86217,314.294064 L1135.86217,314.294064 L1137.69003,308.365524 L1137.69003,308.365524 L1139.1161,303.703393 L1139.1161,303.703393 L1141.09109,297.199585 L1141.09109,297.199585 L1143.15015,290.367053 L1143.15015,290.367053 L1145.29329,283.205796 L1145.29329,283.205796 L1148.09044,273.791956 L1148.09044,273.791956 L1150.42275,265.89107 L1150.42275,265.89107 L1152.83913,257.661459 L1152.83913,257.661459 L1155.33958,249.103124 L1155.33958,249.103124 L1157.92411,240.216064 L1157.92411,240.216064 L1161.273,228.644971 L1161.273,228.644971 L1164.75326,216.560246 C1164.98965,215.737476 1165.22693,214.911283 1165.46507,214.081665 C1169.18348,205.92923 1169.79974,195.045677 1167.31386,181.431007 C1167.05371,180.006216 1166.78163,178.637018 1166.49707,177.318997 L1166.20833,176.017872 C1165.57363,173.235021 1164.87946,170.685515 1164.12017,168.324452 L1163.76508,167.247948 C1161.8464,161.576212 1159.52787,157.004434 1156.72514,152.862927 L1156.19393,152.091273 C1155.92547,151.707804 1155.65271,151.327749 1155.37557,150.950555 L1154.81546,150.199821 L1154.81546,150.199821 L1154.24356,149.455738 C1154.14725,149.332224 1154.05045,149.208946 1153.95315,149.085884 L1153.36335,148.349938 L1153.36335,148.349938 L1152.76146,147.61819 L1152.76146,147.61819 L1152.14735,146.88966 L1152.14735,146.88966 L1151.52091,146.163367 C1151.31002,145.921533 1151.09706,145.679909 1150.88201,145.43833 L1150.23052,144.713567 L1150.23052,144.713567 L1149.56632,143.988097 C1149.45456,143.867073 1149.34226,143.745977 1149.22942,143.624791 L1148.54593,142.896423 L1148.54593,142.896423 L1147.49626,141.797642 L1147.49626,141.797642 L1147.13979,141.42923 C1144.44358,138.65093 1140.86473,135.78743 1136.40323,132.83873 L1135.35798,132.156748 C1135.00435,131.928917 1134.64549,131.700581 1134.2814,131.471742 L1133.17349,130.78371 L1133.17349,130.78371 L1132.03423,130.092654 L1132.03423,130.092654 L1130.86364,129.398573 C1129.87509,128.818912 1128.8539,128.2361 1127.80007,127.650137 L1126.5198,126.945469 L1126.5198,126.945469 L1125.20819,126.237776 C1124.98698,126.119575 1124.76446,126.001248 1124.54064,125.882795 L1123.18203,125.170565 L1123.18203,125.170565 L1121.79209,124.45531 C1121.55782,124.335848 1121.32224,124.216261 1121.08536,124.096548 L1119.64841,123.376755 C1119.40631,123.256538 1119.1629,123.136194 1118.91818,123.015725 L1117.43423,122.291395 L1117.43423,122.291395 L1115.91894,121.564041 L1115.91894,121.564041 L1114.37231,120.833662 L1114.37231,120.833662 L1112.79434,120.100257 L1112.79434,120.100257 L1111.18504,119.363828 L1111.18504,119.363828 L1109.5444,118.624374 L1109.5444,118.624374 L1044.50626,118.624374 C1029.62138,122.210036 1016.47557,128.811777 1005.06885,138.429596 C993.662121,148.047415 984.86374,162.381219 978.673706,181.431007 L986.349792,323.394882 C982.311365,316.443727 978.180108,310.955833 973.956024,306.931198 C969.73194,302.906564 963.814398,300.142322 956.2034,298.638474 L888.382843,303.286942 L771.383152,332.582015 L771.383152,332.582015 L712.554868,347.243958 L712.554868,347.243958 L702.95813,349.615036 L702.95813,349.615036 C681.602264,354.868593 659.942984,357.556459 637.980291,357.678635 L636.411011,357.682999 Z" id="Outline"></path>
                <path d="M434.5,176.894882 L838.5,176.894882 C861.934408,174.561549 873.651611,167.561549 873.651611,155.894882 C873.651611,138.394882 876.147049,94.0621989 873.651611,70.9522552 C872.293132,58.3715436 868.899505,45.8234806 863.470731,33.3080661 C861.250964,28.1906433 856.205101,24.8792572 850.626985,24.8792572 L421.817769,24.8792572 C415.258823,24.8792571 409.579091,29.4328536 408.152794,35.8348419 C406.429723,43.5689137 405.030484,55.2747182 403.955078,70.9522552 C401.043759,113.3942 400.678587,144.530632 403.955078,155.894882 C406.139406,163.471049 416.321046,170.471049 434.5,176.894882 Z" id="Touchbar"></path>
            </g>
        </g>
    </g>
</svg>