<?xml version="1.0" encoding="UTF-8"?>
<svg width="112px" height="93px" viewBox="0 0 112 93" version="1.1" xmlns="http://www.w3.org/2000/svg" xmlns:xlink="http://www.w3.org/1999/xlink">
    <title>right</title>
    <g id="Page-1" stroke="none" stroke-width="1" fill="none" fill-rule="evenodd">
        <g id="DualShock-4-top" transform="translate(-304.000000, -242.000000)" stroke="#FA0000">
            <path d="M358,230.167297 C377.566873,230.167297 391.597783,234.626325 400.047566,243.62584 C401.887132,245.585083 402.81078,248.231812 402.589642,250.910195 L402.589642,250.910195 L399.071438,293.521974 C398.209515,303.961421 393.431692,313.688756 385.696599,320.752275 L385.696599,320.752275 L369.790183,335.277668 C366.450601,338.327302 362.224151,339.853219 357.997047,339.855037 C353.769942,339.856855 349.542182,338.334575 346.199977,335.287814 L346.199977,335.287814 L328.743564,319.374515 C321.241184,312.53533 316.505895,303.1834 315.433722,293.088322 L315.433722,293.088322 L311.36446,254.774054 C311.098062,252.265769 311.840127,249.75451 313.42707,247.793878 C322.955396,236.021849 337.824859,230.167297 358,230.167297 Z" id="right" transform="translate(356.937500, 288.194305) rotate(90.000000) translate(-356.937500, -288.194305) "></path>
        </g>
    </g>
</svg>