<?xml version="1.0" encoding="UTF-8"?>
<svg width="94px" height="111px" viewBox="0 0 94 111" version="1.1" xmlns="http://www.w3.org/2000/svg" xmlns:xlink="http://www.w3.org/1999/xlink">
    <title>down</title>
    <g id="Page-1" stroke="none" stroke-width="1" fill="none" fill-rule="evenodd">
        <g id="DualShock-4-top" transform="translate(-237.000000, -306.000000)" stroke="#FA0000">
            <path d="M285,300.167297 C304.566873,300.167297 318.597783,304.626325 327.047566,313.62584 C328.887132,315.585083 329.81078,318.231812 329.589642,320.910195 L329.589642,320.910195 L326.071438,363.521974 C325.209515,373.961421 320.431692,383.688756 312.696599,390.752275 L312.696599,390.752275 L296.790183,405.277668 C293.450601,408.327302 289.224151,409.853219 284.997047,409.855037 C280.769942,409.856855 276.542182,408.334575 273.199977,405.287814 L273.199977,405.287814 L255.743564,389.374515 C248.241184,382.53533 243.505895,373.1834 242.433722,363.088322 L242.433722,363.088322 L238.36446,324.774054 C238.098062,322.265769 238.840127,319.75451 240.42707,317.793878 C249.955396,306.021849 264.824859,300.167297 285,300.167297 Z" id="down" transform="translate(283.937500, 358.194305) scale(1, -1) translate(-283.937500, -358.194305) "></path>
        </g>
    </g>
</svg>