<?xml version="1.0" encoding="UTF-8"?>
<svg id="icon" width="1529px" height="925px" viewBox="0 0 1529 925" version="1.1" xmlns="http://www.w3.org/2000/svg" xmlns:xlink="http://www.w3.org/1999/xlink">
    <title>top</title>
    <g id="icon" stroke="none" stroke-width="1" fill="none" fill-rule="evenodd">
        <g id="DualShock-4-top" transform="translate(-1.000000, -35.000000)">
            <g id="top" transform="translate(2.135047, 35.740295)">
                <g id="background" transform="translate(0.000868, 0.000000)" stroke="#FF0000">
                    <path d="M1003.37767,14.5088196 L1017.67052,21.5430298 L1105.13463,21.5430298 L1124.3752,9.48020935 L1152.4973,0 L1328.75255,7.63925171 L1344.99913,15.7597046 L1401.74497,106.925149 L1402.08455,107.595368 L1402.08455,107.595368 L1402.76642,108.957708 C1402.88037,109.187198 1402.99446,109.417905 1403.10871,109.649829 L1403.796,111.055972 L1403.796,111.055972 L1404.4869,112.491318 C1404.60235,112.732976 1404.71795,112.975851 1404.83371,113.219942 L1405.53003,114.699092 C1405.64638,114.948051 1405.76289,115.198226 1405.87955,115.449618 L1406.93351,117.744999 L1406.93351,117.744999 L1407.64068,119.311756 L1407.64068,119.311756 L1408.35145,120.907716 L1408.35145,120.907716 L1409.06584,122.532878 L1409.06584,122.532878 L1409.78384,124.187243 L1409.78384,124.187243 L1410.50545,125.87081 L1410.50545,125.87081 L1411.23068,127.58358 L1411.23068,127.58358 L1411.95952,129.325552 L1411.95952,129.325552 L1412.69198,131.096727 L1412.69198,131.096727 L1413.42804,132.897104 L1413.42804,132.897104 L1414.16772,134.726684 L1414.16772,134.726684 L1414.91102,136.585466 L1414.91102,136.585466 L1415.65792,138.473451 L1415.65792,138.473451 L1416.40844,140.390638 L1416.40844,140.390638 L1417.16257,142.337027 L1417.16257,142.337027 L1418.30055,145.311367 L1418.30055,145.311367 L1419.06371,147.330763 L1419.06371,147.330763 L1419.83049,149.379361 L1419.83049,149.379361 L1420.60088,151.457162 L1420.60088,151.457162 L1421.37489,153.564165 L1421.37489,153.564165 L1422.15251,155.700371 L1422.15251,155.700371 L1422.93374,157.86578 L1422.93374,157.86578 L1423.71858,160.060391 L1423.71858,160.060391 L1424.90262,163.407062 L1424.90262,163.407062 L1425.6965,165.674679 L1425.6965,165.674679 L1426.89409,169.130859 L1426.89409,169.130859 L1428.09981,172.652745 L1428.09981,172.652745 L1428.50353,173.841309 C1431.43607,182.491788 1434.32854,191.390148 1437.18092,200.536387 L1438.49456,204.775329 L1438.49456,204.775329 L1439.8025,209.049473 L1439.8025,209.049473 L1441.10476,213.358819 C1442.1876,216.964608 1443.26451,220.607065 1444.33549,224.286191 L1445.61782,228.718743 C1445.83107,229.460436 1446.04408,230.203595 1446.25685,230.94822 L1447.53065,235.433575 L1447.53065,235.433575 L1448.79875,239.954132 C1451.32926,249.030447 1453.82562,258.317974 1456.28783,267.816711 L1457.89323,273.823409 C1458.15915,274.821184 1458.42426,275.817288 1458.68855,276.811721 L1460.26447,282.758268 L1460.26447,282.758268 L1461.82073,288.664715 C1462.07847,289.645781 1462.33539,290.625177 1462.59149,291.602901 L1464.11827,297.449198 L1464.11827,297.449198 L1465.6254,303.255394 C1465.87495,304.219752 1466.12368,305.182439 1466.37159,306.143455 L1467.84923,311.889501 C1468.09387,312.843834 1468.33769,313.796495 1468.58068,314.747486 L1470.02885,320.433382 C1470.26857,321.37769 1470.50747,322.320326 1470.74556,323.261292 L1472.16424,328.887037 L1472.16424,328.887037 L1473.56326,334.472682 L1473.56326,334.472682 L1474.94264,340.018227 L1474.94264,340.018227 L1476.30235,345.523671 C1476.52734,346.437903 1476.7515,347.350465 1476.97484,348.261355 L1478.30508,353.706649 L1478.30508,353.706649 L1479.61566,359.111843 L1479.61566,359.111843 L1480.90659,364.476936 L1480.90659,364.476936 L1482.17786,369.801929 L1482.17786,369.801929 L1483.42948,375.086821 L1483.42948,375.086821 L1484.66144,380.331614 L1484.66144,380.331614 L1485.87375,385.536306 C1486.07416,386.400413 1486.27376,387.262849 1486.47254,388.123614 L1487.65536,393.268156 L1487.65536,393.268156 L1488.81854,398.372597 L1488.81854,398.372597 L1489.96206,403.436938 L1489.96206,403.436938 L1491.08592,408.461179 C1491.27159,409.295211 1491.45645,410.127572 1491.64048,410.958262 L1492.73487,415.922352 L1492.73487,415.922352 L1493.80959,420.846342 L1493.80959,420.846342 L1494.86467,425.730232 L1494.86467,425.730232 L1495.90009,430.574021 L1495.90009,430.574021 L1496.91585,435.37771 L1496.91585,435.37771 L1497.91197,440.141299 C1498.07635,440.931889 1498.23991,441.720808 1498.40265,442.508056 L1499.36928,447.211494 L1499.36928,447.211494 L1500.31626,451.874832 L1500.31626,451.874832 L1501.24358,456.49807 C1501.39649,457.265268 1501.54859,458.030795 1501.69987,458.794651 L1502.59771,463.357739 L1502.59771,463.357739 L1503.47589,467.880726 C1503.62062,468.631215 1503.76452,469.380034 1503.90761,470.127182 L1504.75632,474.590018 C1504.89613,475.330483 1505.03512,476.069276 1505.1733,476.806399 L1505.99252,481.209085 C1506.12742,481.939524 1506.2615,482.668293 1506.39476,483.395391 L1507.1845,487.737926 L1507.1845,487.737926 L1507.95458,492.040362 L1507.95458,492.040362 L1508.70502,496.302697 C1509.32219,499.837934 1509.91888,503.331401 1510.49511,506.783096 L1511.17675,510.90508 L1511.17675,510.90508 L1511.83873,514.986964 L1511.83873,514.986964 L1512.6985,520.412027 L1512.6985,520.412027 L1514.22562,530.196471 L1514.22562,530.196471 L1515.0978,535.870217 L1515.0978,535.870217 L1515.96557,541.606696 L1515.96557,541.606696 L1516.61156,545.951492 L1516.61156,545.951492 L1517.25186,550.33365 L1517.25186,550.33365 L1517.6749,553.276284 L1517.6749,553.276284 L1518.30269,557.722687 L1518.30269,557.722687 L1518.71611,560.708974 L1518.71611,560.708974 L1519.12497,563.713184 L1519.12497,563.713184 L1519.52887,566.735579 L1519.52887,566.735579 L1520.12452,571.303847 L1520.12452,571.303847 L1520.51422,574.37286 L1520.51422,574.37286 L1520.89754,577.46098 L1520.89754,577.46098 L1521.27407,580.568471 C1521.33624,581.088015 1521.3981,581.608378 1521.45966,582.129563 L1521.82523,585.266605 L1521.82523,585.266605 L1522.18299,588.423677 L1522.18299,588.423677 L1522.53253,591.601042 L1522.53253,591.601042 L1522.87345,594.798964 C1522.92953,595.333678 1522.98523,595.86926 1523.04055,596.405715 L1523.36776,599.634966 C1523.42151,600.174935 1523.47485,600.715788 1523.52778,601.25753 L1523.84039,604.518702 C1523.99416,606.154668 1524.14409,607.798738 1524.28994,609.451061 L1524.57616,612.766752 C1524.71648,614.430143 1524.85258,616.101885 1524.98422,617.782125 L1525.2415,621.153982 C1525.32524,622.281741 1525.40693,623.413322 1525.4865,624.548767 L1525.7188,627.966742 C1525.86935,630.253182 1526.01117,632.555257 1526.14371,634.873319 L1526.3355,638.362448 C1526.79725,647.115464 1527.12476,656.095773 1527.28945,665.321895 L1527.32965,667.82338 L1527.32965,667.82338 L1527.36405,669.832271 L1527.36405,669.832271 L1527.36405,671.213163 L1527.36405,671.213163 L1527.36405,673.346949 L1527.36405,673.346949 L1527.36405,675.555671 L1527.36405,675.555671 L1527.3419,677.83933 L1527.3419,677.83933 L1527.3043,681.000777 L1527.3043,681.000777 L1527.27864,682.631459 L1527.27864,682.631459 L1527.2316,685.139928 L1527.2316,685.139928 L1527.19453,686.853873 L1527.19453,686.853873 L1527.10668,690.381678 L1527.10668,690.381678 L1527.00057,694.042704 L1527.00057,694.042704 L1526.87619,697.836951 L1526.87619,697.836951 L1526.73353,701.764419 L1526.73353,701.764419 L1526.57261,705.825107 L1526.57261,705.825107 L1526.43993,708.95805 L1526.43993,708.95805 L1526.19596,714.346148 L1526.19596,714.346148 L1525.98023,718.8065 L1525.98023,718.8065 L1525.86551,721.086634 L1525.86551,721.086634 L1525.55874,726.932679 L1525.55874,726.932679 L1525.29277,731.759388 L1525.29277,731.759388 L1525.00853,736.719319 L1525.00853,736.719319 L1524.62754,743.106574 L1524.62754,743.106574 L1524.13266,751.046048 L1524.13266,751.046048 L1523.59669,759.28527 L1523.59669,759.28527 L1523.11864,766.380261 L1523.11864,766.380261 L1522.71565,772.206128 C1522.68131,772.697168 1522.64677,773.189595 1522.61205,773.683411 C1517.10171,817.357198 1503.0247,851.620962 1480.381,876.474701 C1455.58615,903.689546 1441.88298,910.502922 1417.79002,916.34225 L1415.78594,916.820401 C1415.44788,916.89986 1415.10776,916.979237 1414.76553,917.05858 L1412.68629,917.534646 C1412.33537,917.614057 1411.98223,917.693536 1411.6268,917.773131 L1409.46644,918.252504 L1409.46644,918.252504 L1407.24869,918.737079 L1407.24869,918.737079 L1401.4358,919.987005 L1401.4358,919.987005 L1395.20623,921.321877 L1395.20623,921.321877 L1391.25124,922.179157 L1391.25124,922.179157 L1388.51854,922.779152 L1388.51854,922.779152 L1385.70592,923.404724 L1385.70592,923.404724 L1384.1373,923.303316 L1384.1373,923.303316 L1381.0642,923.09759 C1380.55904,923.062946 1380.05735,923.028112 1379.55909,922.993073 L1376.61011,922.780235 L1376.61011,922.780235 L1373.74066,922.56166 L1373.74066,922.56166 L1370.94815,922.336554 C1370.02985,922.260341 1369.12394,922.182907 1368.23,922.10412 L1365.58365,921.863563 L1365.58365,921.863563 L1363.0065,921.614087 C1327.39892,918.055276 1311.38133,911.640361 1283.12187,892.543999 C1260.69373,877.388156 1241.17158,853.645564 1224.55541,821.316223 L1222.194,816.374672 L1222.194,816.374672 L1220.64219,813.112385 L1220.64219,813.112385 L1218.34818,808.267074 L1218.34818,808.267074 L1216.84131,805.068947 L1216.84131,805.068947 L1215.35241,801.896484 L1215.35241,801.896484 L1213.15276,797.18591 L1213.15276,797.18591 L1211.70879,794.077607 L1211.70879,794.077607 L1209.57654,789.463273 L1209.57654,789.463273 L1208.1775,786.41913 L1208.1775,786.41913 L1206.79644,783.400652 L1206.79644,783.400652 L1205.43335,780.407837 L1205.43335,780.407837 L1203.42241,775.966735 L1203.42241,775.966735 L1202.10426,773.038081 L1202.10426,773.038081 L1200.80407,770.135091 L1200.80407,770.135091 L1199.52186,767.257764 L1199.52186,767.257764 L1197.63224,762.989895 L1197.63224,762.989895 L1196.39497,760.176729 L1196.39497,760.176729 L1195.17566,757.389227 L1195.17566,757.389227 L1193.97433,754.627389 L1193.97433,754.627389 L1192.79097,751.891215 L1192.79097,751.891215 L1191.04963,747.835074 L1191.04963,747.835074 L1189.9112,745.16306 L1189.9112,745.16306 L1188.23726,741.20316 L1188.23726,741.20316 L1187.14376,738.595306 L1187.14376,738.595306 L1186.06824,736.013117 L1186.06824,736.013117 L1185.01069,733.456591 L1185.01069,733.456591 L1183.97111,730.92573 L1183.97111,730.92573 L1182.29639,726.809201 L1182.29639,726.809201 L1180.61947,722.638974 L1180.61947,722.638974 L1178.52394,717.367117 L1178.52394,717.367117 L1176.70832,712.750918 L1176.70832,712.750918 L1175.21043,708.912004 L1175.21043,708.912004 L1173.28134,703.930919 L1173.28134,703.930919 L1170.88321,697.686033 L1170.88321,697.686033 L1168.39429,691.149239 L1168.39429,691.149239 L1165.37583,683.154038 L1165.37583,683.154038 L1162.69022,675.984775 L1162.69022,675.984775 L1160.84938,671.043094 L1160.84938,671.043094 L1157.53083,662.082973 L1157.53083,662.082973 L1154.58801,654.086634 L1154.58801,654.086634 L1151.55441,645.798387 L1151.55441,645.798387 L1148.43003,637.21823 L1148.43003,637.21823 L1144.67017,626.839108 L1144.67017,626.839108 L1141.3491,617.626482 L1141.3491,617.626482 L1137.93724,608.121948 L1137.93724,608.121948 C1135.58421,597.460409 1130.64855,589.834493 1123.13024,585.244202 C1115.61192,580.65391 1109.8301,579.555311 1105.78478,581.948402 C1071.84825,610.505506 1035.21316,623.064718 995.879503,619.626038 C956.545844,616.187358 924.006181,601.619526 898.260515,575.922543 L765.363467,576.786 L765.364085,576.80809 L763.681467,576.797 L761.999132,576.80809 L761.998467,576.786 L629.102702,575.922543 C603.614492,601.362556 571.467486,615.894888 532.661685,619.519538 L531.483714,619.626038 C492.150055,623.064718 455.514964,610.505506 421.57844,581.948402 C417.533111,579.555311 411.751292,580.65391 404.232981,585.244202 C396.714671,589.834493 391.779002,597.460409 389.425974,608.121948 L384.897005,620.729792 L384.897005,620.729792 L381.066547,631.335955 L381.066547,631.335955 L377.359652,641.544797 L377.359652,641.544797 L374.28066,649.978999 L374.28066,649.978999 L370.316553,660.770521 L370.316553,660.770521 L366.513835,671.043094 L366.513835,671.043094 L363.767708,678.406963 L363.767708,678.406963 L361.548616,684.320535 L361.548616,684.320535 L359.392566,690.031393 L359.392566,690.031393 L356.888523,696.616839 L356.888523,696.616839 L355.269596,700.844965 L355.269596,700.844965 L353.302674,705.947679 L353.302674,705.947679 L351.025585,711.803352 L351.025585,711.803352 L348.483718,718.266032 L348.483718,718.266032 L347.0867,721.780602 L347.0867,721.780602 L345.066825,726.809201 L345.066825,726.809201 L344.413706,728.420532 L344.413706,728.420532 L342.874562,732.187952 L342.874562,732.187952 L341.825999,734.731646 L341.825999,734.731646 L340.759463,737.301003 L340.759463,737.301003 L339.674954,739.896025 L339.674954,739.896025 L338.572473,742.516711 L338.572473,742.516711 L337.452018,745.16306 L337.452018,745.16306 L336.313591,747.835074 L336.313591,747.835074 L334.57225,751.891215 L334.57225,751.891215 L332.79047,756.0051 L332.79047,756.0051 L330.968251,760.176729 L330.968251,760.176729 L329.105593,764.406102 L329.105593,764.406102 L327.202495,768.693219 L327.202495,768.693219 L325.258959,773.038081 L325.258959,773.038081 L323.940802,775.966735 L323.940802,775.966735 L322.604672,778.921054 L322.604672,778.921054 L321.250568,781.901036 L321.250568,781.901036 L319.185714,786.41913 L319.185714,786.41913 L317.786679,789.463273 L317.786679,789.463273 L316.36967,792.53308 L316.36967,792.53308 L314.934689,795.62855 L314.934689,795.62855 L312.748517,800.319877 L312.748517,800.319877 L311.268603,803.479508 L311.268603,803.479508 L309.015033,808.267074 L309.015033,808.267074 L306.721024,813.112385 L306.721024,813.112385 L304.386576,818.01544 L304.386576,818.01544 L302.80781,821.316223 L302.80781,821.316223 C286.19164,853.645564 266.669484,877.388156 244.241343,892.543999 C215.981885,911.640361 199.964301,918.055276 164.356715,921.614087 L161.77957,921.863563 L161.77957,921.863563 L159.133215,922.10412 C158.239275,922.182907 157.33337,922.260341 156.415071,922.336554 L153.62256,922.56166 L153.62256,922.56166 L150.753106,922.780235 L150.753106,922.780235 L147.804129,922.993073 L147.804129,922.993073 L144.773052,923.200971 C143.748724,923.269535 142.710282,923.337409 141.657298,923.404724 L138.844675,922.779152 L138.844675,922.779152 L136.111977,922.179157 L136.111977,922.179157 L132.156988,921.321877 L132.156988,921.321877 L121.245759,918.982066 L121.245759,918.982066 L117.896775,918.252504 L117.896775,918.252504 L115.736415,917.773131 L115.736415,917.773131 L113.630798,917.296562 L113.630798,917.296562 L111.577274,916.820401 L111.577274,916.820401 L109.573193,916.34225 C85.4802344,910.502922 71.7770666,903.689546 46.9822183,876.474701 C24.3385212,851.620962 10.261505,817.357198 4.75116972,773.683411 L4.20528179,765.805002 L4.20528179,765.805002 L3.69268973,758.169388 L3.69268973,758.169388 L3.36945941,753.213865 L3.36945941,753.213865 L2.83941444,744.801356 L2.83941444,744.801356 L2.42116072,737.853662 L2.42116072,737.853662 L2.03620289,731.148764 L2.03620289,731.148764 L1.74083905,725.746817 L1.74083905,725.746817 L1.52119592,721.546657 L1.52119592,721.546657 L1.26745194,716.448204 L1.26745194,716.448204 L1.03683009,711.518359 L1.03683009,711.518359 L0.829330391,706.757122 L0.829330391,706.757122 L0.64495283,702.164493 L0.64495283,702.164493 L0.514098723,698.611787 L0.514098723,698.611787 L0.371341016,694.322651 L0.371341016,694.322651 L0.25170545,690.202124 L0.25170545,690.202124 L0.191022739,687.810739 L0.191022739,687.810739 L0.108382599,683.959984 L0.108382599,683.959984 L0.0589184293,681.000777 L0.0589184293,681.000777 L0.0242524298,678.14948 L0.0242524298,678.14948 L0,675.406092 L0,675.406092 L0,674.074863 L0,674.074863 L0,671.680862 L0,671.680862 L0,669.832271 C0,669.529107 0.017279919,669.228409 0.0203755687,668.930179 L0.0430093216,667.170403 L0.0430093216,667.170403 C0.338233255,648.035177 1.33705116,629.955125 2.78705893,612.766752 L3.07327182,609.451061 L3.07327182,609.451061 L3.37034604,606.157375 L3.37034604,606.157375 L3.67787491,602.885431 C3.78208179,601.798377 3.88796333,600.714904 3.99545175,599.634966 L4.32266988,596.405715 L4.32266988,596.405715 L4.65912262,593.197417 L4.65912262,593.197417 L5.00440329,590.009807 L5.00440329,590.009807 L5.35810521,586.842621 L5.35810521,586.842621 L5.7198217,583.695597 L5.7198217,583.695597 L6.08914608,580.568471 L6.08914608,580.568471 L6.46567168,577.46098 L6.46567168,577.46098 L6.84899181,574.37286 L6.84899181,574.37286 L7.23869979,571.303847 L7.23869979,571.303847 L7.63438894,568.253679 L7.63438894,568.253679 L8.23824775,563.713184 L8.23824775,563.713184 L8.64711061,560.708974 L8.64711061,560.708974 L9.26882367,556.236182 L9.26882367,556.236182 L9.68831848,553.276284 L9.68831848,553.276284 L10.1113544,550.33365 L10.1113544,550.33365 L10.9664228,544.49912 L10.9664228,544.49912 L11.6139948,540.16658 L11.6139948,540.16658 L12.2654166,535.870217 L12.2654166,535.870217 L12.9193156,531.609141 L12.9193156,531.609141 L14.4470041,521.798866 L14.4470041,521.798866 L15.2008604,517.012868 L15.2008604,517.012868 L15.8530197,512.951035 L15.8530197,512.951035 L16.5248334,508.849101 C17.320081,504.040119 18.1554564,499.149266 19.0309596,494.176542 L19.791218,489.894157 L19.791218,489.894157 L20.5711309,485.571671 C20.7027542,484.847915 20.8351965,484.122488 20.9684577,483.395391 L21.7778521,479.012755 C22.1874629,476.811411 22.6044441,474.595031 23.0287957,472.363612 L23.8873262,467.880726 L23.8873262,467.880726 L24.765511,463.357739 L24.765511,463.357739 L25.6633502,458.794651 L25.6633502,458.794651 L26.5808438,454.191464 C26.7353973,453.420924 26.8907697,452.648714 27.046961,451.874832 L27.9939362,447.211494 C28.1534033,446.430929 28.3136893,445.648694 28.4747942,444.864787 L29.451251,440.141299 L29.451251,440.141299 L30.4473622,435.37771 L30.4473622,435.37771 L31.4631277,430.574021 C31.6340599,429.770064 31.8058109,428.964437 31.9783809,428.157139 L33.0236281,423.293299 L33.0236281,423.293299 L34.0885296,418.389359 C34.2676511,417.568694 34.4475915,416.746359 34.6283508,415.922352 L35.722734,410.958262 C35.906769,410.127572 36.091623,409.295211 36.277296,408.461179 L37.4011607,403.436938 C37.5901094,402.596223 37.7798769,401.753837 37.9704635,400.90978 L39.1238098,395.825389 L39.1238098,395.825389 L40.2968105,390.700898 L40.2968105,390.700898 L41.4894657,385.536306 L41.4894657,385.536306 L42.7017752,380.331614 C42.9054646,379.460823 43.109973,378.588362 43.3153003,377.71423 L44.5570915,372.449388 C44.7656945,371.568572 44.9751165,370.686086 45.1853574,369.801929 L46.4566301,364.476936 L46.4566301,364.476936 L47.7475572,359.111843 C47.9643496,358.214319 48.1819609,357.315124 48.4003912,356.414258 L49.7207999,350.989015 C49.9425058,350.081466 50.1650308,349.172246 50.3883746,348.261355 L51.7382649,342.775961 L51.7382649,342.775961 L53.1078096,337.250467 L53.1078096,337.250467 L54.4970086,331.684872 L54.4970086,331.684872 L55.9058621,326.079177 L55.9058621,326.079177 L57.33437,320.433382 L57.33437,320.433382 L58.7825322,314.747486 L58.7825322,314.747486 L60.2503489,309.021491 L60.2503489,309.021491 L61.7378199,303.255394 L61.7378199,303.255394 L63.2449454,297.449198 L63.2449454,297.449198 L64.7717252,291.602901 L64.7717252,291.602901 L66.3181594,285.716504 L66.3181594,285.716504 L67.884248,279.790007 L67.884248,279.790007 L69.4699911,273.823409 L69.4699911,273.823409 L71.0753885,267.816711 L71.0753885,267.816711 L72.309338,263.084944 C73.9583987,256.799388 75.6226382,250.607703 77.3020566,244.509891 L78.5644663,239.954132 C82.5711098,225.583299 86.6633713,211.741961 90.8412508,198.430117 L92.1634273,194.243977 L92.1634273,194.243977 L93.4912957,190.09304 C95.043796,185.270814 96.6079175,180.520459 98.1836604,175.841973 L99.2634036,172.652745 L99.2634036,172.652745 L100.469124,169.130859 L100.469124,169.130859 L101.268421,166.819438 L101.268421,166.819438 L102.064105,164.53722 L102.064105,164.53722 L102.856176,162.284204 L102.856176,162.284204 L103.644633,160.060391 L103.644633,160.060391 L104.429478,157.86578 L104.429478,157.86578 L105.210709,155.700371 L105.210709,155.700371 L105.988327,153.564165 L105.988327,153.564165 L106.762332,151.457162 L106.762332,151.457162 L107.532724,149.379361 L107.532724,149.379361 L108.299503,147.330763 L108.299503,147.330763 L109.062669,145.311367 L109.062669,145.311367 L109.822221,143.321173 L109.822221,143.321173 L110.57816,141.360182 L110.57816,141.360182 L111.705294,138.473451 L111.705294,138.473451 L112.452201,136.585466 L112.452201,136.585466 L113.195494,134.726684 L113.195494,134.726684 L113.935174,132.897104 L113.935174,132.897104 L114.671241,131.096727 L114.671241,131.096727 L115.403695,129.325552 L115.403695,129.325552 L116.132535,127.58358 L116.132535,127.58358 L116.857763,125.87081 L116.857763,125.87081 L117.579377,124.187243 L117.579377,124.187243 L118.297378,122.532878 L118.297378,122.532878 L119.011766,120.907716 L119.011766,120.907716 L119.722541,119.311756 L119.722541,119.311756 L120.429703,117.744999 L120.429703,117.744999 L121.133252,116.207444 L121.133252,116.207444 L121.833187,114.699092 L121.833187,114.699092 L122.529509,113.219942 L122.529509,113.219942 L123.222218,111.769995 L123.222218,111.769995 L123.911314,110.34925 L123.911314,110.34925 L124.596797,108.957708 C124.710743,108.728218 124.824539,108.499945 124.938184,108.272888 L125.618247,106.925149 L182.364085,15.7597046 L198.610667,7.63925171 L374.865916,0 L402.988017,9.48020935 L422.228587,21.5430298 L509.692698,21.5430298 L523.985545,14.5088196 L1003.37767,14.5088196 Z" id="Outline-2" stroke-linecap="square"></path>
                    <path d="M282.168229,86.520582 C282.54045,86.5164591 282.914197,86.6501343 283.206835,86.9225228 L283.206835,86.9225228 L302.801954,105.161737 C303.105149,105.443953 303.26525,105.822345 303.278999,106.205982 C303.292748,106.589619 303.160144,106.978502 302.877929,107.281697 C302.59417,107.58655 302.19644,107.759705 301.779962,107.759705 L301.779962,107.759705 L263.439988,107.759705 C263.025775,107.759705 262.650775,107.591811 262.379328,107.320365 C262.107882,107.048918 261.939988,106.673918 261.939988,106.259705 C261.939988,105.854769 262.103707,105.467035 262.393927,105.184644 L262.393927,105.184644 L281.138781,86.9454291 C281.425314,86.6666256 281.796008,86.5247048 282.168229,86.520582 Z" id="upArrow"></path>
                    <path d="M283.168229,397.520582 C283.54045,397.516459 283.914197,397.650134 284.206835,397.922523 L284.206835,397.922523 L303.801954,416.161737 C304.105149,416.443953 304.26525,416.822345 304.278999,417.205982 C304.292748,417.589619 304.160144,417.978502 303.877929,418.281697 C303.59417,418.58655 303.19644,418.759705 302.779962,418.759705 L302.779962,418.759705 L264.439988,418.759705 C264.025775,418.759705 263.650775,418.591811 263.379328,418.320365 C263.107882,418.048918 262.939988,417.673918 262.939988,417.259705 C262.939988,416.854769 263.103707,416.467035 263.393927,416.184644 L263.393927,416.184644 L282.138781,397.945429 C282.425314,397.666626 282.796008,397.524705 283.168229,397.520582 Z" id="downArrow" transform="translate(283.690363, 407.759705) scale(1, -1) translate(-283.690363, -407.759705) "></path>
                    <path d="M438.168229,241.520582 C438.54045,241.516459 438.914197,241.650134 439.206835,241.922523 L439.206835,241.922523 L458.801954,260.161737 C459.105149,260.443953 459.26525,260.822345 459.278999,261.205982 C459.292748,261.589619 459.160144,261.978502 458.877929,262.281697 C458.59417,262.58655 458.19644,262.759705 457.779962,262.759705 L457.779962,262.759705 L419.439988,262.759705 C419.025775,262.759705 418.650775,262.591811 418.379328,262.320365 C418.107882,262.048918 417.939988,261.673918 417.939988,261.259705 C417.939988,260.854769 418.103707,260.467035 418.393927,260.184644 L418.393927,260.184644 L437.138781,241.945429 C437.425314,241.666626 437.796008,241.524705 438.168229,241.520582 Z" id="leftArrow" transform="translate(438.690363, 251.759705) scale(1, -1) rotate(90.000000) translate(-438.690363, -251.759705) "></path>
                    <path d="M126.168229,240.520582 C126.54045,240.516459 126.914197,240.650134 127.206835,240.922523 L127.206835,240.922523 L146.801954,259.161737 C147.105149,259.443953 147.26525,259.822345 147.278999,260.205982 C147.292748,260.589619 147.160144,260.978502 146.877929,261.281697 C146.59417,261.58655 146.19644,261.759705 145.779962,261.759705 L145.779962,261.759705 L107.439988,261.759705 C107.025775,261.759705 106.650775,261.591811 106.379328,261.320365 C106.107882,261.048918 105.939988,260.673918 105.939988,260.259705 C105.939988,259.854769 106.103707,259.467035 106.393927,259.184644 L106.393927,259.184644 L125.138781,240.945429 C125.425314,240.666626 125.796008,240.524705 126.168229,240.520582 Z" id="rightArrow" transform="translate(126.690363, 250.759705) scale(-1, -1) rotate(90.000000) translate(-126.690363, -250.759705) "></path>
                    <path d="M1003.2613,15.0088196 L1017.1729,21.8554008 L1019.11654,275.017873 C1019.18332,283.716102 1015.71812,291.617937 1010.06167,297.361911 C1004.40522,303.105885 996.557524,306.691996 987.863133,306.758762 L987.863133,306.758762 L535.638021,306.759705 C526.939536,306.759705 519.064536,303.233947 513.364157,297.533568 C507.663779,291.833189 504.138021,283.958189 504.138021,275.259705 C504.138021,275.0088 504.141019,274.757904 504.147014,274.507071 L504.147014,274.507071 L510.185316,21.8578607 L524.101917,15.0088196 L1003.2613,15.0088196 Z" id="touchpad"></path>
                </g>
                <circle id="triangle" stroke="#FF0000" cx="1245.86495" cy="139.259705" r="50.5"></circle>
                <circle id="circle" stroke="#FF0000" cx="1358.86495" cy="252.259705" r="50.5"></circle>
                <circle id="square" stroke="#FF0000" cx="1131.86495" cy="253.259705" r="50.5"></circle>
                <circle id="x" stroke="#FF0000" cx="1245.86495" cy="366.259705" r="50.5"></circle>
                <circle id="home" stroke="#FF0000" cx="763.864953" cy="472.259705" r="39.5"></circle>
                <g id="rightstick" transform="translate(920.864953, 373.259705)" stroke="#FF0000">
                    <circle id="Oval" cx="92" cy="92" r="50.5"></circle>
                    <circle id="Oval-Copy" cx="92" cy="92" r="91.5"></circle>
                </g>
                <rect id="option" stroke="#FF0000" x="1053.36495" y="52.7597046" width="51" height="90" rx="25.5"></rect>
                <rect id="share" stroke="#FF0000" x="423.364953" y="52.7597046" width="51" height="90" rx="25.5"></rect>
                <path d="M282.864953,122.427002 C302.431827,122.427002 316.462736,126.88603 324.912519,135.885545 C326.752085,137.844788 327.675733,140.491517 327.454595,143.1699 L327.454595,143.1699 L323.936392,185.781679 C323.074468,196.221126 318.296646,205.948461 310.561552,213.01198 L310.561552,213.01198 L294.655137,227.537372 C291.315554,230.587007 287.089105,232.112924 282.862,232.114742 C278.634895,232.11656 274.407135,230.594279 271.06493,227.547519 L271.06493,227.547519 L253.608518,211.634219 C246.106137,204.795035 241.370848,195.443104 240.298676,185.348026 L240.298676,185.348026 L236.229414,147.033759 C235.963015,144.525474 236.70508,142.014214 238.292023,140.053583 C247.820349,128.281553 262.689812,122.427002 282.864953,122.427002 Z" id="up" stroke="#FA0000"></path>
                <path d="M282.864953,264.427002 C302.431827,264.427002 316.462736,268.88603 324.912519,277.885545 C326.752085,279.844788 327.675733,282.491517 327.454595,285.1699 L327.454595,285.1699 L323.936392,327.781679 C323.074468,338.221126 318.296646,347.948461 310.561552,355.01198 L310.561552,355.01198 L294.655137,369.537372 C291.315554,372.587007 287.089105,374.112924 282.862,374.114742 C278.634895,374.11656 274.407135,372.594279 271.06493,369.547519 L271.06493,369.547519 L253.608518,353.634219 C246.106137,346.795035 241.370848,337.443104 240.298676,327.348026 L240.298676,327.348026 L236.229414,289.033759 C235.963015,286.525474 236.70508,284.014214 238.292023,282.053583 C247.820349,270.281553 262.689812,264.427002 282.864953,264.427002 Z" id="down" stroke="#FA0000" transform="translate(281.802453, 322.454010) scale(1, -1) translate(-281.802453, -322.454010) "></path>
                <path d="M355.864953,194.427002 C375.431827,194.427002 389.462736,198.88603 397.912519,207.885545 C399.752085,209.844788 400.675733,212.491517 400.454595,215.1699 L400.454595,215.1699 L396.936392,257.781679 C396.074468,268.221126 391.296646,277.948461 383.561552,285.01198 L383.561552,285.01198 L367.655137,299.537372 C364.315554,302.587007 360.089105,304.112924 355.862,304.114742 C351.634895,304.11656 347.407135,302.594279 344.06493,299.547519 L344.06493,299.547519 L326.608518,283.634219 C319.106137,276.795035 314.370848,267.443104 313.298676,257.348026 L313.298676,257.348026 L309.229414,219.033759 C308.963015,216.525474 309.70508,214.014214 311.292023,212.053583 C320.820349,200.281553 335.689812,194.427002 355.864953,194.427002 Z" id="right" stroke="#FA0000" transform="translate(354.802453, 252.454010) rotate(90.000000) translate(-354.802453, -252.454010) "></path>
                <path d="M210.864953,195.427002 C230.431827,195.427002 244.462736,199.88603 252.912519,208.885545 C254.752085,210.844788 255.675733,213.491517 255.454595,216.1699 L255.454595,216.1699 L251.936392,258.781679 C251.074468,269.221126 246.296646,278.948461 238.561552,286.01198 L238.561552,286.01198 L222.655137,300.537372 C219.315554,303.587007 215.089105,305.112924 210.862,305.114742 C206.634895,305.11656 202.407135,303.594279 199.06493,300.547519 L199.06493,300.547519 L181.608518,284.634219 C174.106137,277.795035 169.370848,268.443104 168.298676,258.348026 L168.298676,258.348026 L164.229414,220.033759 C163.963015,217.525474 164.70508,215.014214 166.292023,213.053583 C175.820349,201.281553 190.689812,195.427002 210.864953,195.427002 Z" id="left" stroke="#FA0000" transform="translate(209.802453, 253.454010) scale(-1, -1) rotate(90.000000) translate(-209.802453, -253.454010) "></path>
            </g>
        </g>
    </g>
</svg>